<?xml version="1.0" encoding="UTF-8"?><svg xmlns="http://www.w3.org/2000/svg" viewBox="0 0 111.9 78.44"><defs><style>.cls-1{fill:#e5b1cd;}.cls-2{fill:#af60a6;}.cls-3{fill:#dd82ac;}.cls-4{fill:#282828;}.cls-5{fill:#876387;mix-blend-mode:multiply;}.cls-6{isolation:isolate;}</style></defs><g class="cls-6"><g id="Layer_1"><g><g><path class="cls-4" d="M.79,58.49H7.62c1.83,0,3.28,.53,4.19,1.42,.66,.69,1.03,1.54,1.03,2.57v.05c0,2.09-1.28,3.16-2.54,3.71,1.9,.57,3.44,1.67,3.44,3.87v.05c0,2.75-2.31,4.38-5.82,4.38H.79v-16.04Zm10.22,4.24c0-1.58-1.26-2.61-3.55-2.61H2.58v5.52H7.32c2.18,0,3.69-.99,3.69-2.86v-.05Zm-3.37,4.52H2.58v5.66H7.96c2.43,0,3.94-1.08,3.94-2.86v-.05c0-1.74-1.47-2.75-4.26-2.75Z"/><path class="cls-4" d="M17.04,62.69h1.76v3.09c.87-1.97,2.59-3.39,4.84-3.3v1.9h-.14c-2.59,0-4.7,1.86-4.7,5.43v4.72h-1.76v-11.85Z"/><path class="cls-4" d="M24.86,71.1v-.05c0-2.5,2.06-3.83,5.06-3.83,1.51,0,2.59,.21,3.64,.5v-.41c0-2.13-1.31-3.23-3.53-3.23-1.4,0-2.5,.37-3.6,.87l-.53-1.44c1.31-.6,2.59-.99,4.31-.99s2.96,.44,3.83,1.31c.8,.8,1.21,1.95,1.21,3.46v7.24h-1.7v-1.79c-.82,1.08-2.2,2.04-4.29,2.04-2.2,0-4.42-1.26-4.42-3.69Zm8.73-.92v-1.15c-.87-.25-2.04-.5-3.48-.5-2.22,0-3.46,.96-3.46,2.45v.05c0,1.49,1.38,2.36,2.98,2.36,2.18,0,3.96-1.33,3.96-3.21Z"/><path class="cls-4" d="M39.07,58.15h2.02v1.95h-2.02v-1.95Zm.11,4.54h1.76v11.85h-1.76v-11.85Z"/><path class="cls-4" d="M45.05,62.69h1.76v2.06c.78-1.28,2.02-2.31,4.06-2.31,2.86,0,4.54,1.93,4.54,4.74v7.36h-1.76v-6.92c0-2.2-1.19-3.58-3.28-3.58s-3.55,1.49-3.55,3.71v6.78h-1.76v-11.85Z"/><path class="cls-4" d="M57.75,66.56v-.05c0-4.79,3.78-8.37,8.85-8.37,2.75,0,4.97,.92,6.72,2.43l-3,3.62c-1.05-.89-2.22-1.4-3.55-1.4-2.08,0-3.6,1.6-3.6,3.78v.05c0,2.27,1.58,3.83,3.83,3.83,.92,0,1.42-.14,1.83-.37v-1.6h-2.75v-3.44h7.77v7.43c-1.74,1.42-4.17,2.41-7.08,2.41-5,0-9.01-3.35-9.01-8.32Z"/><path class="cls-4" d="M83.76,62.02h5.29l-4.33,11.64c-1.21,3.28-2.54,4.61-5.43,4.61-1.81,0-3.44-.53-4.83-1.31l1.51-3.55c.94,.53,1.81,.83,2.29,.83,.3,0,.57-.05,.85-.18l-4.91-12.03h5.39l2.18,6.6,1.99-6.6Z"/><path class="cls-4" d="M89.86,62.02h5.2v1.67c.8-1.03,2.06-1.97,3.78-1.97s3,.73,3.69,2.06c1.05-1.19,2.31-2.06,4.24-2.06,2.68,0,4.33,1.74,4.33,4.56v8.25h-5.2v-6.62c0-1.05-.62-1.65-1.38-1.65s-1.44,.6-1.44,1.65v6.62h-5.2v-6.62c0-1.05-.62-1.65-1.38-1.65s-1.44,.6-1.44,1.65v6.62h-5.2v-12.51Z"/></g><g><path class="cls-2" d="M65.62,39.81l-.09,.07-.12,.19c-.12,.21-.25,.41-.39,.6-.04,.06-.08,.11-.12,.16-.09,.13-.19,.26-.28,.38-1.88,2.37-4.45,3.34-8.16,3.12l-.76-.05-.46,.61c-1.06,1.39-.88,3.82-.71,6.18,.02,.31,.05,.66,.07,1.01v.05c0,.1,.01,.2,.02,.3v.09c0,.08,.01,.17,.01,.25,0,.04,0,.07,0,.11,0,.07,0,.15,0,.22,0,.04,0,.07,0,.11,0,.07,0,.13,0,.2,0,.03,0,.07,0,.1,0,.05,0,.09,0,.14-1.23-.51-3.37-1.98-5.38-3.83-.91-1.11-2.66-3.79-1.93-7.35,.16-.77-.34-1.53-1.11-1.69-.77-.15-1.53,.34-1.69,1.11-.25,1.22-.28,2.37-.17,3.42-.94-.99-1.93-2.07-2.97-3.24,1.54-1.55,2.81-3.69,3.34-5.93,.69-2.9,.76-8.26-5.85-12.83,3.52-4.48,5.01-8.8,4.42-12.86-.19-1.32-.59-2.49-1.09-3.51,4.62-2.32,11.36-1.79,17.86,4.24,1.11,1.24,2.56,3.26,2.58,5.03,0,.85-.31,1.55-1,2.21-1.48,1.39-3.54,2.15-5.4,1.98-.78-.07-1.86-.35-2.53-1.26-1.67-2.29-4.45-3.05-6.61-1.8-1.89,1.09-3.38,4-1.35,8.62,.03,.08,.09,.14,.13,.21-.39,.73-.65,1.43-.75,2.04-.12,.78,.41,1.51,1.19,1.63,.08,.01,.15,.02,.23,.02,.69,0,1.3-.5,1.41-1.2,.2-1.24,2.26-4.23,5.69-6.04,.7,.33,1.49,.54,2.34,.62,2.4,.22,5.02-.63,7.03-2.24,2.77,.63,4.75,1.88,5.87,3.74,3.7,6.38-2.61,14.28-3.26,15.07Zm-5.58-10.76c-1.33-.8-3.34-.52-5.81,.8-.7,.37-.96,1.24-.59,1.93,.37,.7,1.24,.96,1.93,.59,1.81-.97,.8,2.76-.74,3.81-.65,.44-.83,1.33-.39,1.98,.28,.41,.73,.63,1.19,.63,.27,0,.55-.08,.8-.24,.51-.34,4.99-3.46,4.99-6.87,0-1.16-.49-2.1-1.37-2.63Z"/><path class="cls-3" d="M32.36,30.42c-1.25,1.21,.25,3.33-1.25,3.77-3.21,.95-4.05-1.75-4.27-2.42-.25-.75-1.05-1.16-1.8-.91-.75,.25-1.16,1.05-.91,1.8,.04,.12,.99,2.94,3.63,4.26,.89,.44,1.84,.67,2.86,.67,.87,0,1.78-.16,2.72-.48,1.68-.57,2.82-1.82,3.13-3.43,.26-1.36-.12-2.74-.94-3.43-.6-.51-2.59-.38-3.15,.17Zm-3.96-12.93c2.42-.59,4.31-2.6,4.87-4.2,.45-1.3,.18-2.3-.13-2.9-.74-1.46-2.3-1.98-2.48-2.04-.75-.23-2.25,.86-2.36,1.51-.4,2.25,.97,4.48-.57,4.86-1.42,.34-2.92-.22-4.45-1.68-.57-.54-1.47-.52-2.02,.05-.54,.57-.52,1.47,.05,2.02,2.09,2,4.05,2.57,5.6,2.57,.55,0,1.06-.07,1.5-.18Zm8.44,24.09c-.5,.03-1.1,.12-1.8,.22-1.94,.27-4.68,.66-7.64,.3-1.33-.22-2.69-.55-4.08-1.01-2-.79-4-2.07-5.82-4.08-8.04-11.12-6.98-18.26-5.57-21.58,2.52-3.76,5.92-7.24,9.71-9.55,4.8-2.76,10.18-3.74,14.7-1.58,.5,.35,3.56,2.66,4.12,6.61,.47,3.33-.9,7.01-4.07,10.94-1.02-.49-2.62-1.09-4.33-1.09-2.99,0-5.93,.86-7.51,2.19-.6,.51-.68,1.41-.17,2.01,.28,.33,.69,.51,1.09,.51,.33,0,.65-.11,.92-.34,.72-.61,2.82-1.52,5.66-1.52,1.96,0,3.86,1.22,3.89,1.24,.01,0,.02,.01,.03,.02,0,0,.02,.01,.02,.02,6.12,3.62,6.6,7.77,5.92,10.6-.86,3.63-3.79,6.01-5.1,6.1Z"/><path class="cls-1" d="M13.9,16.55c-2.93,4.28-1.13,12.22-1.3,11.78-2.48-6.26-1.66-10.55-.66-12.91,2.52-3.76,5.92-7.24,9.71-9.55,4.8-2.76,10.18-3.74,14.7-1.58,0,0-10.96-3.25-22.45,12.26Z"/><path class="cls-1" d="M29.89,19.4c1.91-.52,4.25-1.01,8.39-.2-.44,.66-1.33,1.96-1.88,2.63-1.02-.49-2.62-1.09-4.33-1.09-2.99,0-5.93,.86-7.51,2.19,0,0,1.47-2.49,5.33-3.53Z"/><path class="cls-5" d="M41.38,42.07c1.54-1.55,2.81-3.69,3.34-5.93,.69-2.9,.76-8.26-5.85-12.83,3.52-4.48,5.01-8.8,4.42-12.86-.19-1.32-.59-2.49-1.09-3.51,0,0,3.91,4.78,2.82,9.93-1.23,5.8-3.61,7.06-3.61,7.06,0,0,6.38,3.5,5.9,11.56-.28,4.68-2.91,7.43-4.42,8.23-.81-1.01-1.26-1.36-1.52-1.65Z"/><path class="cls-5" d="M52.72,47.89c1.14-2.81,2.98-3.6,2.98-3.6l-.46,.61c-1.06,1.39-.88,3.82-.71,6.18,.02,.31,.05,.66,.07,1.01v.05c0,.1,.01,.2,.02,.3v.09c0,.08,.01,.17,.01,.25,0,.04,0,.07,0,.11,0,.07,0,.15,0,.22,0,.04,0,.07,0,.11,0,.07,0,.13,0,.2,0,.03,0,.07,0,.1,0,.05,0,.09,0,.14-.63-.26-1.49-.77-2.44-1.45-.19-.13,0-2.99,.54-4.31Z"/><path class="cls-4" d="M32.36,30.42c-1.25,1.21,.25,3.33-1.25,3.77-3.21,.95-4.05-1.75-4.27-2.42-.25-.75-1.05-1.16-1.8-.91-.75,.25-1.16,1.05-.91,1.8,.04,.12,.99,2.94,3.63,4.26,.89,.44,1.84,.67,2.86,.67,.87,0,1.78-.16,2.72-.48,1.68-.57,2.82-1.82,3.13-3.43,.26-1.36-.12-2.74-.94-3.43-.6-.51-2.59-.38-3.15,.17Zm-3.96-12.93c2.42-.59,4.31-2.6,4.87-4.2,.45-1.3,.18-2.3-.13-2.9-.74-1.46-2.3-1.98-2.48-2.04-.75-.23-2.25,.86-2.36,1.51-.4,2.25,.97,4.48-.57,4.86-1.42,.34-2.92-.22-4.45-1.68-.57-.54-1.47-.52-2.02,.05-.54,.57-.52,1.47,.05,2.02,2.09,2,4.05,2.57,5.6,2.57,.55,0,1.06-.07,1.5-.18Zm45.29,8.23c-1.15-4.41-4.21-7.79-6.76-8.87C62.97,1.97,48.65-.73,37.23,1.54c-.07-.03-.14-.05-.21-.08-.24-.1-.47-.2-.71-.29-.03-.01-.06-.02-.09-.03-4.72-1.75-9.59-1.01-14.05,1.21-5.65,2.67-10.7,7.57-13.57,13.13-3.68,7.1-1.77,18.79,6.95,24.88,2.32,1.58,4.59,2.65,6.78,3.4,1.59,.62,3.18,.98,4.71,1.17,2.69,.44,5.2,.51,7.47,.57,.81,.02,1.6,.04,2.37,.08,2.2,.11,5.37,2.34,8.3,4.63,3.82,3.67,7.5,6.42,9.99,6.42,.08,0,.17,0,.25,0,2.38-.19,2.18-3.02,1.98-5.76-.02-.21-.03-.45-.05-.7,0-.05,0-.09,0-.14,0-.09-.01-.17-.02-.26,0-.07,0-.14-.01-.21,0-.08,0-.17-.01-.25,0-.08,0-.16-.01-.24,0-.08,0-.16,0-.24,0-.08,0-.16,0-.24,0-.08,0-.16,0-.23,0-.08,0-.16,0-.24,0-.08,0-.15,0-.22,0-.07,0-.15,0-.21,0-.07,.01-.14,.02-.2,0-.05,0-.1,.02-.14,3.66,.29,7.06-1.24,9.48-4.25,.12-.14,.23-.3,.34-.45,.05-.06,.09-.12,.14-.18,.16-.22,.31-.45,.46-.69,3.15-2.79,7.93-8.46,5.95-16.03Zm-36.85,15.87c-.5,.03-1.1,.12-1.8,.22-1.94,.27-4.68,.66-7.64,.3-1.33-.22-2.69-.55-4.08-1.01-2-.79-4-2.07-5.82-4.08-8.04-11.12-6.98-18.26-5.57-21.58,2.52-3.76,5.92-7.24,9.71-9.55,4.8-2.76,10.18-3.74,14.7-1.58,.5,.35,3.56,2.66,4.12,6.61,.47,3.33-.9,7.01-4.07,10.94-1.02-.49-2.62-1.09-4.33-1.09-2.99,0-5.93,.86-7.51,2.19-.6,.51-.68,1.41-.17,2.01,.28,.33,.69,.51,1.09,.51,.33,0,.65-.11,.92-.34,.72-.61,2.82-1.52,5.66-1.52,1.96,0,3.86,1.22,3.89,1.24,.01,0,.02,.01,.03,.02,0,0,.02,.01,.02,.02,6.12,3.62,6.6,7.77,5.92,10.6-.86,3.63-3.79,6.01-5.1,6.1Zm28.77-1.77l-.09,.07-.12,.19c-.12,.21-.25,.41-.39,.6-.04,.06-.08,.11-.12,.16-.09,.13-.19,.26-.28,.38-1.88,2.37-4.45,3.34-8.16,3.12l-.76-.05-.46,.61c-1.06,1.39-.88,3.82-.71,6.18,.02,.31,.05,.66,.07,1.01v.05c0,.1,.01,.2,.02,.3v.09c0,.08,.01,.17,.01,.25,0,.04,0,.07,0,.11,0,.07,0,.15,0,.22,0,.04,0,.07,0,.11,0,.07,0,.13,0,.2,0,.03,0,.07,0,.1,0,.05,0,.09,0,.14-1.23-.51-3.51-2.05-5.38-3.83-.91-1.11-2.66-3.79-1.93-7.35,.16-.77-.34-1.53-1.11-1.69-.77-.15-1.53,.34-1.69,1.11-.25,1.22-.28,2.37-.17,3.42-.94-.99-1.93-2.07-2.97-3.24,1.54-1.55,2.81-3.69,3.34-5.93,.69-2.9,.76-8.26-5.85-12.83,3.52-4.48,5.01-8.8,4.42-12.86-.19-1.32-.59-2.49-1.09-3.51,4.62-2.32,11.36-1.79,17.86,4.24,1.11,1.24,2.56,3.26,2.58,5.03,0,.85-.31,1.55-1,2.21-1.48,1.39-3.54,2.15-5.4,1.98-.78-.07-1.86-.35-2.53-1.26-1.67-2.29-4.45-3.05-6.61-1.8-1.89,1.09-3.38,4-1.35,8.62,.03,.08,.09,.14,.13,.21-.39,.73-.65,1.43-.75,2.04-.12,.78,.41,1.51,1.19,1.63,.08,.01,.15,.02,.23,.02,.69,0,1.3-.5,1.41-1.2,.2-1.24,2.26-4.23,5.69-6.04,.7,.33,1.49,.54,2.34,.62,2.4,.22,5.02-.63,7.03-2.24,2.77,.63,4.75,1.88,5.87,3.74,3.7,6.38-2.61,14.28-3.26,15.07Zm-5.58-10.76c-1.33-.8-3.34-.52-5.81,.8-.7,.37-.96,1.24-.59,1.93,.37,.7,1.24,.96,1.93,.59,1.81-.97,.8,2.76-.74,3.81-.65,.44-.83,1.33-.39,1.98,.28,.41,.73,.63,1.19,.63,.27,0,.55-.08,.8-.24,.51-.34,4.99-3.46,4.99-6.87,0-1.16-.49-2.1-1.37-2.63Z"/></g></g></g></g></svg>