<?xml version="1.0" encoding="UTF-8"?><svg xmlns="http://www.w3.org/2000/svg" viewBox="0 0 144.81 57.31"><defs><style>.cls-1{fill:#e5b1cd;}.cls-2{fill:#af60a6;}.cls-3{fill:#dd82ac;}.cls-4{fill:#282828;}.cls-5{fill:#876387;mix-blend-mode:multiply;}.cls-6{isolation:isolate;}</style></defs><g class="cls-6"><g id="Layer_1"><g><g><path class="cls-4" d="M76.24,7.88h8.51c2.29,0,4.08,.66,5.23,1.77,.83,.86,1.29,1.91,1.29,3.2v.06c0,2.6-1.6,3.94-3.17,4.63,2.37,.71,4.29,2.08,4.29,4.83v.06c0,3.43-2.88,5.46-7.26,5.46h-8.88V7.88Zm12.74,5.28c0-1.97-1.57-3.26-4.43-3.26h-6.08v6.88h5.91c2.71,0,4.6-1.23,4.6-3.57v-.06Zm-4.2,5.63h-6.31v7.05h6.71c3.03,0,4.91-1.34,4.91-3.57v-.06c0-2.17-1.83-3.43-5.31-3.43Z"/><path class="cls-4" d="M96.5,13.11h2.2v3.86c1.08-2.46,3.23-4.23,6.03-4.11v2.37h-.17c-3.23,0-5.86,2.31-5.86,6.77v5.88h-2.2V13.11Z"/><path class="cls-4" d="M106.24,23.59v-.06c0-3.11,2.57-4.77,6.31-4.77,1.88,0,3.23,.26,4.54,.63v-.51c0-2.66-1.63-4.03-4.4-4.03-1.74,0-3.11,.46-4.48,1.09l-.66-1.8c1.63-.74,3.23-1.23,5.37-1.23s3.69,.54,4.77,1.63c1,1,1.51,2.43,1.51,4.31v9.03h-2.11v-2.23c-1.03,1.34-2.74,2.54-5.34,2.54-2.74,0-5.51-1.57-5.51-4.6Zm10.88-1.14v-1.43c-1.09-.31-2.54-.63-4.34-.63-2.77,0-4.31,1.2-4.31,3.06v.06c0,1.86,1.71,2.94,3.71,2.94,2.71,0,4.94-1.66,4.94-4Z"/><path class="cls-4" d="M123.95,7.45h2.51v2.43h-2.51v-2.43Zm.14,5.66h2.2v14.77h-2.2V13.11Z"/><path class="cls-4" d="M131.4,13.11h2.2v2.57c.97-1.6,2.51-2.88,5.06-2.88,3.57,0,5.66,2.4,5.66,5.91v9.17h-2.2v-8.63c0-2.74-1.49-4.46-4.08-4.46s-4.43,1.86-4.43,4.63v8.46h-2.2V13.11Z"/><path class="cls-4" d="M74.67,41.1v-.06c0-5.97,4.71-10.43,11.03-10.43,3.43,0,6.2,1.14,8.37,3.03l-3.74,4.51c-1.31-1.11-2.77-1.74-4.43-1.74-2.6,0-4.48,2-4.48,4.71v.06c0,2.83,1.97,4.77,4.77,4.77,1.14,0,1.77-.17,2.29-.46v-2h-3.43v-4.28h9.68v9.25c-2.17,1.77-5.2,3-8.83,3-6.23,0-11.23-4.17-11.23-10.37Z"/><path class="cls-4" d="M108.24,35.45h6.6l-5.4,14.51c-1.51,4.08-3.17,5.74-6.77,5.74-2.26,0-4.28-.66-6.03-1.63l1.89-4.43c1.17,.66,2.26,1.03,2.86,1.03,.37,0,.71-.06,1.06-.23l-6.11-15h6.71l2.71,8.23,2.49-8.23Z"/><path class="cls-4" d="M116.98,35.45h6.48v2.09c1-1.29,2.57-2.46,4.71-2.46s3.74,.91,4.6,2.57c1.31-1.49,2.88-2.57,5.28-2.57,3.34,0,5.4,2.17,5.4,5.68v10.28h-6.48v-8.25c0-1.31-.77-2.06-1.71-2.06s-1.8,.74-1.8,2.06v8.25h-6.48v-8.25c0-1.31-.77-2.06-1.71-2.06s-1.8,.74-1.8,2.06v8.25h-6.48v-15.6Z"/></g><g><path class="cls-2" d="M59.29,40.06l-.09,.07-.12,.19c-.12,.21-.25,.41-.39,.6-.04,.06-.08,.11-.12,.16-.09,.13-.19,.26-.28,.38-1.88,2.37-4.45,3.34-8.16,3.12l-.76-.05-.46,.61c-1.06,1.39-.88,3.82-.71,6.18,.02,.31,.05,.66,.07,1.01v.05c0,.1,.01,.2,.02,.3v.09c0,.08,.01,.17,.01,.25,0,.04,0,.07,0,.11,0,.07,0,.15,0,.22,0,.04,0,.07,0,.11,0,.07,0,.13,0,.2,0,.03,0,.07,0,.1,0,.05,0,.09,0,.14-1.23-.51-3.37-1.98-5.38-3.83-.91-1.11-2.66-3.79-1.93-7.35,.16-.77-.34-1.53-1.11-1.69-.77-.15-1.53,.34-1.69,1.11-.25,1.22-.28,2.37-.17,3.42-.94-.99-1.93-2.07-2.97-3.24,1.54-1.55,2.81-3.69,3.34-5.93,.69-2.9,.76-8.26-5.85-12.83,3.52-4.48,5.01-8.8,4.42-12.86-.19-1.32-.59-2.49-1.09-3.51,4.62-2.32,11.36-1.79,17.86,4.24,1.11,1.24,2.56,3.26,2.58,5.03,0,.85-.31,1.55-1,2.21-1.48,1.39-3.54,2.15-5.4,1.98-.78-.07-1.86-.35-2.53-1.26-1.67-2.29-4.45-3.05-6.61-1.8-1.89,1.09-3.38,4-1.35,8.62,.03,.08,.09,.14,.13,.21-.39,.73-.65,1.43-.75,2.04-.12,.78,.41,1.51,1.19,1.63,.08,.01,.15,.02,.23,.02,.69,0,1.3-.5,1.41-1.2,.2-1.24,2.26-4.23,5.69-6.04,.7,.33,1.49,.54,2.34,.62,2.4,.22,5.02-.63,7.03-2.24,2.77,.63,4.75,1.88,5.87,3.74,3.7,6.38-2.61,14.28-3.26,15.07Zm-5.58-10.76c-1.33-.8-3.34-.52-5.81,.8-.7,.37-.96,1.24-.59,1.93,.37,.7,1.24,.96,1.93,.59,1.81-.97,.8,2.76-.74,3.81-.65,.44-.83,1.33-.39,1.98,.28,.41,.73,.63,1.19,.63,.27,0,.55-.08,.8-.24,.51-.34,4.99-3.46,4.99-6.87,0-1.16-.49-2.1-1.37-2.63Z"/><path class="cls-3" d="M26.04,30.68c-1.25,1.21,.25,3.33-1.25,3.77-3.21,.95-4.05-1.75-4.27-2.42-.25-.75-1.05-1.16-1.8-.91-.75,.25-1.16,1.05-.91,1.8,.04,.12,.99,2.94,3.63,4.26,.89,.44,1.84,.67,2.86,.67,.87,0,1.78-.16,2.72-.48,1.68-.57,2.82-1.82,3.13-3.43,.26-1.36-.12-2.74-.94-3.43-.6-.51-2.59-.38-3.15,.17Zm-3.96-12.93c2.42-.59,4.31-2.6,4.87-4.2,.45-1.3,.18-2.3-.13-2.9-.74-1.46-2.3-1.98-2.48-2.04-.75-.23-2.25,.86-2.36,1.51-.4,2.25,.97,4.48-.57,4.86-1.42,.34-2.92-.22-4.45-1.68-.57-.54-1.47-.52-2.02,.05-.54,.57-.52,1.47,.05,2.02,2.09,2,4.05,2.57,5.6,2.57,.55,0,1.06-.07,1.5-.18Zm8.44,24.09c-.5,.03-1.1,.12-1.8,.22-1.94,.27-4.68,.66-7.64,.3-1.33-.22-2.69-.55-4.08-1.01-2-.79-4-2.07-5.82-4.08C3.15,26.14,4.21,19.01,5.62,15.68c2.52-3.76,5.92-7.24,9.71-9.55,4.8-2.76,10.18-3.74,14.7-1.58,.5,.35,3.56,2.66,4.12,6.61,.47,3.33-.9,7.01-4.07,10.94-1.02-.49-2.62-1.09-4.33-1.09-2.99,0-5.93,.86-7.51,2.19-.6,.51-.68,1.41-.17,2.01,.28,.33,.69,.51,1.09,.51,.33,0,.65-.11,.92-.34,.72-.61,2.82-1.52,5.66-1.52,1.96,0,3.86,1.22,3.89,1.24,.01,0,.02,.01,.03,.02,0,0,.02,.01,.02,.02,6.12,3.62,6.6,7.77,5.92,10.6-.86,3.63-3.79,6.01-5.1,6.1Z"/><path class="cls-1" d="M7.58,16.8c-2.93,4.28-1.13,12.22-1.3,11.78-2.48-6.26-1.66-10.55-.66-12.91,2.52-3.76,5.92-7.24,9.71-9.55,4.8-2.76,10.18-3.74,14.7-1.58,0,0-10.96-3.25-22.45,12.26Z"/><path class="cls-1" d="M23.56,19.66c1.91-.52,4.25-1.01,8.39-.2-.44,.66-1.33,1.96-1.88,2.63-1.02-.49-2.62-1.09-4.33-1.09-2.99,0-5.93,.86-7.51,2.19,0,0,1.47-2.49,5.33-3.53Z"/><path class="cls-5" d="M35.06,42.33c1.54-1.55,2.81-3.69,3.34-5.93,.69-2.9,.76-8.26-5.85-12.83,3.52-4.48,5.01-8.8,4.42-12.86-.19-1.32-.59-2.49-1.09-3.51,0,0,3.91,4.78,2.82,9.93-1.23,5.8-3.61,7.06-3.61,7.06,0,0,6.38,3.5,5.9,11.56-.28,4.68-2.91,7.43-4.42,8.23-.81-1.01-1.26-1.36-1.52-1.65Z"/><path class="cls-5" d="M46.4,48.14c1.14-2.81,2.98-3.6,2.98-3.6l-.46,.61c-1.06,1.39-.88,3.82-.71,6.18,.02,.31,.05,.66,.07,1.01v.05c0,.1,.01,.2,.02,.3v.09c0,.08,.01,.17,.01,.25,0,.04,0,.07,0,.11,0,.07,0,.15,0,.22,0,.04,0,.07,0,.11,0,.07,0,.13,0,.2,0,.03,0,.07,0,.1,0,.05,0,.09,0,.14-.63-.26-1.49-.77-2.44-1.45-.19-.13,0-2.99,.54-4.31Z"/><path class="cls-4" d="M26.04,30.68c-1.25,1.21,.25,3.33-1.25,3.77-3.21,.95-4.05-1.75-4.27-2.42-.25-.75-1.05-1.16-1.8-.91-.75,.25-1.16,1.05-.91,1.8,.04,.12,.99,2.94,3.63,4.26,.89,.44,1.84,.67,2.86,.67,.87,0,1.78-.16,2.72-.48,1.68-.57,2.82-1.82,3.13-3.43,.26-1.36-.12-2.74-.94-3.43-.6-.51-2.59-.38-3.15,.17Zm-3.96-12.93c2.42-.59,4.31-2.6,4.87-4.2,.45-1.3,.18-2.3-.13-2.9-.74-1.46-2.3-1.98-2.48-2.04-.75-.23-2.25,.86-2.36,1.51-.4,2.25,.97,4.48-.57,4.86-1.42,.34-2.92-.22-4.45-1.68-.57-.54-1.47-.52-2.02,.05-.54,.57-.52,1.47,.05,2.02,2.09,2,4.05,2.57,5.6,2.57,.55,0,1.06-.07,1.5-.18Zm45.29,8.23c-1.15-4.41-4.21-7.79-6.76-8.87C56.65,2.22,42.33-.48,30.91,1.8c-.07-.03-.14-.05-.21-.08-.24-.1-.47-.2-.71-.29-.03-.01-.06-.02-.09-.03C25.18-.36,20.3,.38,15.84,2.6,10.19,5.27,5.14,10.18,2.27,15.73c-3.68,7.1-1.77,18.79,6.95,24.88,2.32,1.58,4.59,2.65,6.78,3.4,1.59,.62,3.18,.98,4.71,1.17,2.69,.44,5.2,.51,7.47,.57,.81,.02,1.6,.04,2.37,.08,2.2,.11,5.37,2.34,8.3,4.63,3.82,3.67,7.5,6.42,9.99,6.42,.08,0,.17,0,.25,0,2.38-.19,2.18-3.02,1.98-5.76-.02-.21-.03-.45-.05-.7,0-.05,0-.09,0-.14,0-.09-.01-.17-.02-.26,0-.07,0-.14-.01-.21,0-.08,0-.17-.01-.25,0-.08,0-.16-.01-.24,0-.08,0-.16,0-.24,0-.08,0-.16,0-.24,0-.08,0-.16,0-.23,0-.08,0-.16,0-.24,0-.08,0-.15,0-.22,0-.07,0-.15,0-.21,0-.07,.01-.14,.02-.2,0-.05,0-.1,.02-.14,3.66,.29,7.06-1.24,9.48-4.25,.12-.14,.23-.3,.34-.45,.05-.06,.09-.12,.14-.18,.16-.22,.31-.45,.46-.69,3.15-2.79,7.93-8.46,5.95-16.03Zm-36.85,15.87c-.5,.03-1.1,.12-1.8,.22-1.94,.27-4.68,.66-7.64,.3-1.33-.22-2.69-.55-4.08-1.01-2-.79-4-2.07-5.82-4.08C3.15,26.14,4.21,19.01,5.62,15.68c2.52-3.76,5.92-7.24,9.71-9.55,4.8-2.76,10.18-3.74,14.7-1.58,.5,.35,3.56,2.66,4.12,6.61,.47,3.33-.9,7.01-4.07,10.94-1.02-.49-2.62-1.09-4.33-1.09-2.99,0-5.93,.86-7.51,2.19-.6,.51-.68,1.41-.17,2.01,.28,.33,.69,.51,1.09,.51,.33,0,.65-.11,.92-.34,.72-.61,2.82-1.52,5.66-1.52,1.96,0,3.86,1.22,3.89,1.24,.01,0,.02,.01,.03,.02,0,0,.02,.01,.02,.02,6.12,3.62,6.6,7.77,5.92,10.6-.86,3.63-3.79,6.01-5.1,6.1Zm28.77-1.77l-.09,.07-.12,.19c-.12,.21-.25,.41-.39,.6-.04,.06-.08,.11-.12,.16-.09,.13-.19,.26-.28,.38-1.88,2.37-4.45,3.34-8.16,3.12l-.76-.05-.46,.61c-1.06,1.39-.88,3.82-.71,6.18,.02,.31,.05,.66,.07,1.01v.05c0,.1,.01,.2,.02,.3v.09c0,.08,.01,.17,.01,.25,0,.04,0,.07,0,.11,0,.07,0,.15,0,.22,0,.04,0,.07,0,.11,0,.07,0,.13,0,.2,0,.03,0,.07,0,.1,0,.05,0,.09,0,.14-1.23-.51-3.51-2.05-5.38-3.83-.91-1.11-2.66-3.79-1.93-7.35,.16-.77-.34-1.53-1.11-1.69-.77-.15-1.53,.34-1.69,1.11-.25,1.22-.28,2.37-.17,3.42-.94-.99-1.93-2.07-2.97-3.24,1.54-1.55,2.81-3.69,3.34-5.93,.69-2.9,.76-8.26-5.85-12.83,3.52-4.48,5.01-8.8,4.42-12.86-.19-1.32-.59-2.49-1.09-3.51,4.62-2.32,11.36-1.79,17.86,4.24,1.11,1.24,2.56,3.26,2.58,5.03,0,.85-.31,1.55-1,2.21-1.48,1.39-3.54,2.15-5.4,1.98-.78-.07-1.86-.35-2.53-1.26-1.67-2.29-4.45-3.05-6.61-1.8-1.89,1.09-3.38,4-1.35,8.62,.03,.08,.09,.14,.13,.21-.39,.73-.65,1.43-.75,2.04-.12,.78,.41,1.51,1.19,1.63,.08,.01,.15,.02,.23,.02,.69,0,1.3-.5,1.41-1.2,.2-1.24,2.26-4.23,5.69-6.04,.7,.33,1.49,.54,2.34,.62,2.4,.22,5.02-.63,7.03-2.24,2.77,.63,4.75,1.88,5.87,3.74,3.7,6.38-2.61,14.28-3.26,15.07Zm-5.58-10.76c-1.33-.8-3.34-.52-5.81,.8-.7,.37-.96,1.24-.59,1.93,.37,.7,1.24,.96,1.93,.59,1.81-.97,.8,2.76-.74,3.81-.65,.44-.83,1.33-.39,1.98,.28,.41,.73,.63,1.19,.63,.27,0,.55-.08,.8-.24,.51-.34,4.99-3.46,4.99-6.87,0-1.16-.49-2.1-1.37-2.63Z"/></g></g></g></g></svg>