<?xml version="1.0" encoding="UTF-8"?><svg xmlns="http://www.w3.org/2000/svg" viewBox="0 0 32 32"><defs><style>.cls-1{fill:#e5b1cd;}.cls-2{fill:#af60a6;}.cls-3{fill:#dd82ac;}.cls-4{fill:#282828;}.cls-5{fill:#876387;mix-blend-mode:multiply;}.cls-6{isolation:isolate;}</style></defs><g class="cls-6"><g id="Layer_1"><g><path class="cls-2" d="M27.94,21.42l-.04,.04-.06,.09c-.06,.1-.12,.19-.18,.28-.02,.03-.04,.05-.06,.08-.04,.06-.09,.12-.13,.18-.89,1.13-2.12,1.59-3.88,1.48l-.36-.02-.22,.29c-.5,.66-.42,1.82-.34,2.94,.01,.15,.02,.31,.03,.48v.02s0,.09,0,.14v.04s0,.08,0,.12v.05s0,.07,0,.1c0,.02,0,.04,0,.05,0,.03,0,.06,0,.09v.11c-.59-.24-1.6-.94-2.56-1.82-.43-.53-1.27-1.8-.92-3.49,.08-.37-.16-.73-.53-.8-.37-.07-.73,.16-.8,.53-.12,.58-.13,1.12-.08,1.62-.45-.47-.92-.98-1.41-1.54,.73-.74,1.33-1.75,1.59-2.82,.33-1.38,.36-3.92-2.78-6.1,1.67-2.13,2.38-4.18,2.1-6.11-.09-.63-.28-1.18-.52-1.67,2.2-1.1,5.4-.85,8.49,2.02,.53,.59,1.22,1.55,1.23,2.39,0,.41-.15,.74-.48,1.05-.7,.66-1.68,1.02-2.57,.94-.37-.03-.88-.17-1.2-.6-.79-1.09-2.12-1.45-3.14-.86-.9,.52-1.61,1.9-.64,4.1,.02,.04,.04,.07,.06,.1-.19,.35-.31,.68-.36,.97-.06,.37,.19,.72,.56,.78,.04,0,.07,0,.11,0,.33,0,.62-.24,.67-.57,.09-.59,1.07-2.01,2.7-2.87,.33,.16,.71,.26,1.11,.3,1.14,.11,2.39-.3,3.34-1.06,1.32,.3,2.26,.89,2.79,1.78,1.76,3.03-1.24,6.79-1.55,7.16Zm-2.65-5.11c-.63-.38-1.59-.25-2.76,.38-.33,.18-.46,.59-.28,.92,.18,.33,.59,.46,.92,.28,.86-.46,.38,1.31-.35,1.81-.31,.21-.39,.63-.18,.94,.13,.19,.35,.3,.56,.3,.13,0,.26-.04,.38-.12,.24-.16,2.37-1.64,2.37-3.26,0-.55-.23-1-.65-1.25Z"/><path class="cls-3" d="M12.14,16.96c-.59,.57,.12,1.58-.59,1.79-1.53,.45-1.92-.83-2.03-1.15-.12-.36-.5-.55-.86-.43-.36,.12-.55,.5-.43,.86,.02,.06,.47,1.4,1.72,2.02,.42,.21,.88,.32,1.36,.32,.41,0,.84-.08,1.29-.23,.8-.27,1.34-.87,1.49-1.63,.12-.65-.06-1.3-.45-1.63-.29-.24-1.23-.18-1.5,.08Zm-1.88-6.14c1.15-.28,2.05-1.24,2.31-2,.21-.62,.08-1.09-.06-1.38-.35-.69-1.1-.94-1.18-.97-.36-.11-1.07,.41-1.12,.72-.19,1.07,.46,2.13-.27,2.31-.68,.16-1.39-.1-2.11-.8-.27-.26-.7-.25-.96,.02-.26,.27-.25,.7,.02,.96,.99,.95,1.92,1.22,2.66,1.22,.26,0,.5-.03,.71-.09Zm4.01,11.45c-.24,.02-.52,.06-.85,.1-.92,.13-2.22,.31-3.63,.14-.63-.1-1.28-.26-1.94-.48-.95-.38-1.9-.98-2.76-1.94C1.26,14.81,1.77,11.41,2.44,9.83c1.2-1.79,2.82-3.44,4.62-4.54,2.28-1.31,4.84-1.78,6.98-.75,.24,.17,1.69,1.26,1.96,3.14,.22,1.58-.43,3.33-1.94,5.2-.48-.23-1.24-.52-2.06-.52-1.42,0-2.82,.41-3.57,1.04-.29,.24-.32,.67-.08,.96,.13,.16,.33,.24,.52,.24,.15,0,.31-.05,.44-.16,.34-.29,1.34-.72,2.69-.72,.93,0,1.83,.58,1.85,.59h.02v.02c2.92,1.72,3.15,3.69,2.83,5.04-.41,1.72-1.8,2.86-2.42,2.9Z"/><path class="cls-1" d="M3.37,10.37c-1.39,2.03-.54,5.81-.62,5.6-1.18-2.98-.79-5.01-.31-6.13,1.2-1.79,2.82-3.44,4.62-4.54,2.28-1.31,4.84-1.78,6.98-.75,0,0-5.21-1.55-10.67,5.83Z"/><path class="cls-1" d="M10.96,11.73c.91-.25,2.02-.48,3.99-.1-.21,.31-.63,.93-.89,1.25-.48-.23-1.24-.52-2.06-.52-1.42,0-2.82,.41-3.57,1.04,0,0,.7-1.18,2.53-1.68Z"/><path class="cls-5" d="M16.42,22.5c.73-.74,1.33-1.75,1.59-2.82,.33-1.38,.36-3.92-2.78-6.1,1.67-2.13,2.38-4.18,2.1-6.11-.09-.63-.28-1.18-.52-1.67,0,0,1.86,2.27,1.34,4.72-.58,2.76-1.72,3.35-1.72,3.35,0,0,3.03,1.66,2.81,5.49-.13,2.22-1.38,3.53-2.1,3.91-.39-.48-.6-.64-.72-.79Z"/><path class="cls-5" d="M21.82,25.26c.54-1.34,1.41-1.71,1.41-1.71l-.22,.29c-.5,.66-.42,1.82-.34,2.94,.01,.15,.02,.31,.03,.48v.02s0,.09,0,.14v.04s0,.08,0,.12v.05s0,.07,0,.1c0,.02,0,.04,0,.05,0,.03,0,.06,0,.09v.11c-.3-.12-.71-.36-1.17-.69-.09-.06,0-1.42,.26-2.05Z"/><path class="cls-4" d="M12.14,16.96c-.59,.57,.12,1.58-.59,1.79-1.53,.45-1.92-.83-2.03-1.15-.12-.36-.5-.55-.86-.43-.36,.12-.55,.5-.43,.86,.02,.06,.47,1.4,1.72,2.02,.42,.21,.88,.32,1.36,.32,.41,0,.84-.08,1.29-.23,.8-.27,1.34-.87,1.49-1.63,.12-.65-.06-1.3-.45-1.63-.29-.24-1.23-.18-1.5,.08Zm-1.88-6.14c1.15-.28,2.05-1.24,2.31-2,.21-.62,.08-1.09-.06-1.38-.35-.69-1.1-.94-1.18-.97-.36-.11-1.07,.41-1.12,.72-.19,1.07,.46,2.13-.27,2.31-.68,.16-1.39-.1-2.11-.8-.27-.26-.7-.25-.96,.02-.26,.27-.25,.7,.02,.96,.99,.95,1.92,1.22,2.66,1.22,.26,0,.5-.03,.71-.09Zm21.52,3.91c-.55-2.09-2-3.7-3.21-4.22-1.88-7.07-8.69-8.35-14.12-7.27-.03-.01-.07-.03-.1-.04-.11-.05-.23-.09-.34-.14l-.04-.02c-2.24-.83-4.56-.48-6.68,.58-2.68,1.27-5.08,3.6-6.45,6.24C-.9,13.23,0,18.79,4.15,21.68c1.1,.75,2.18,1.26,3.22,1.62,.76,.3,1.51,.47,2.24,.56,1.28,.21,2.47,.24,3.55,.27,.39,.01,.76,.02,1.13,.04,1.05,.05,2.55,1.11,3.94,2.2,1.81,1.74,3.57,3.05,4.75,3.05,.04,0,.08,0,.12,0,1.13-.09,1.03-1.44,.94-2.74,0-.1-.02-.21-.02-.33v-.07s0-.08-.01-.12v-.1s0-.08-.01-.12c0-.04,0-.08,0-.11,0-.04,0-.08,0-.12,0-.04,0-.08,0-.12,0-.04,0-.07,0-.11,0-.04,0-.08,0-.11,0-.04,0-.07,0-.11,0-.03,0-.07,0-.1,0-.03,0-.06,0-.1,0-.02,0-.05,0-.07,1.74,.14,3.36-.59,4.51-2.02,.06-.07,.11-.14,.16-.21,.02-.03,.04-.06,.07-.09,.08-.11,.15-.22,.22-.33,1.5-1.33,3.77-4.02,2.83-7.62Zm-17.51,7.54c-.24,.02-.52,.06-.85,.1-.92,.13-2.22,.31-3.63,.14-.63-.1-1.28-.26-1.94-.48-.95-.38-1.9-.98-2.76-1.94C1.26,14.81,1.77,11.41,2.44,9.83c1.2-1.79,2.82-3.44,4.62-4.54,2.28-1.31,4.84-1.78,6.98-.75,.24,.17,1.69,1.26,1.96,3.14,.22,1.58-.43,3.33-1.94,5.2-.48-.23-1.24-.52-2.06-.52-1.42,0-2.82,.41-3.57,1.04-.29,.24-.32,.67-.08,.96,.13,.16,.33,.24,.52,.24,.15,0,.31-.05,.44-.16,.34-.29,1.34-.72,2.69-.72,.93,0,1.83,.58,1.85,.59h.02v.02c2.92,1.72,3.15,3.69,2.83,5.04-.41,1.72-1.8,2.86-2.42,2.9Zm13.67-.84l-.04,.04-.06,.09c-.06,.1-.12,.19-.18,.28-.02,.03-.04,.05-.06,.08-.04,.06-.09,.12-.13,.18-.89,1.13-2.12,1.59-3.88,1.48l-.36-.02-.22,.29c-.5,.66-.42,1.82-.34,2.94,.01,.15,.02,.31,.03,.48v.02s0,.09,0,.14v.04s0,.08,0,.12v.05s0,.07,0,.1c0,.02,0,.04,0,.05,0,.03,0,.06,0,.09v.11c-.59-.24-1.67-.97-2.56-1.82-.43-.53-1.27-1.8-.92-3.49,.08-.37-.16-.73-.53-.8-.37-.07-.73,.16-.8,.53-.12,.58-.13,1.12-.08,1.62-.45-.47-.92-.98-1.41-1.54,.73-.74,1.33-1.75,1.59-2.82,.33-1.38,.36-3.92-2.78-6.1,1.67-2.13,2.38-4.18,2.1-6.11-.09-.63-.28-1.18-.52-1.67,2.2-1.1,5.4-.85,8.49,2.02,.53,.59,1.22,1.55,1.23,2.39,0,.41-.15,.74-.48,1.05-.7,.66-1.68,1.02-2.57,.94-.37-.03-.88-.17-1.2-.6-.79-1.09-2.12-1.45-3.14-.86-.9,.52-1.61,1.9-.64,4.1,.02,.04,.04,.07,.06,.1-.19,.35-.31,.68-.36,.97-.06,.37,.19,.72,.56,.78,.04,0,.07,0,.11,0,.33,0,.62-.24,.67-.57,.09-.59,1.07-2.01,2.7-2.87,.33,.16,.71,.26,1.11,.3,1.14,.11,2.39-.3,3.34-1.06,1.32,.3,2.26,.89,2.79,1.78,1.76,3.03-1.24,6.79-1.55,7.16Zm-2.65-5.11c-.63-.38-1.59-.25-2.76,.38-.33,.18-.46,.59-.28,.92,.18,.33,.59,.46,.92,.28,.86-.46,.38,1.31-.35,1.81-.31,.21-.39,.63-.18,.94,.13,.19,.35,.3,.56,.3,.13,0,.26-.04,.38-.12,.24-.16,2.37-1.64,2.37-3.26,0-.55-.23-1-.65-1.25Z"/></g></g></g></svg>